<svg width="118" height="81" viewBox="0 0 118 81" fill="none" xmlns="http://www.w3.org/2000/svg">
<g clip-path="url(#clip0_265_77)">
<path opacity="0.94" d="M46.7759 65.7401L42.5922 74.0626C43.0087 72.5672 42.9523 70.9653 42.3338 69.398L40.8917 65.7401L40.3468 64.3549L34.7163 50.0698C34.7163 50.0698 50.5244 18.8331 50.9769 18.338C49.6601 21.3815 49.5113 24.7931 50.8156 28.1021L57.3512 44.6741L57.3559 44.6933L52.4847 54.3818L46.7759 65.7401Z" fill="url(#paint0_linear_265_77)"/>
<path opacity="0.94" d="M42.592 74.0626L41.4834 76.2699L41.4787 76.2776C41.2235 76.7804 40.879 77.2498 40.4641 77.673C39.1895 78.9735 37.4515 79.9919 35.3675 80.5434C34.5454 80.7589 33.7124 80.8923 32.8904 80.9448H32.8763C28.0052 81.2552 23.3314 78.8132 21.764 74.8373L1.05193 22.2857C-2.61825 12.9833 3.61824 3.00247 14.9795 0L34.7161 50.0685L40.3466 64.3537L40.8915 65.7388L42.3336 69.3967C42.9537 70.964 43.0085 72.5659 42.592 74.0614V74.0626Z" fill="url(#paint1_linear_265_77)"/>
<path opacity="0.94" d="M71.5419 80.6806L65.653 65.7401L61.1733 54.3818L57.356 44.6933L57.3513 44.6741L50.8157 28.1021C49.513 24.7931 49.6602 21.3815 50.977 18.338C52.8403 14.003 57.0694 10.4054 62.8237 8.88428L83.5498 61.4628C86.7111 69.4852 81.3358 78.0924 71.5419 80.6819V80.6806Z" fill="url(#paint2_linear_265_77)"/>
<path d="M108.756 39.6144C113.861 39.6144 118 36.2242 118 32.0421C118 27.8601 113.861 24.4699 108.756 24.4699C103.65 24.4699 99.5112 27.8601 99.5112 32.0421C99.5112 36.2242 103.65 39.6144 108.756 39.6144Z" fill="url(#paint3_linear_265_77)"/>
<path opacity="0.94" d="M108.702 45.0319C113.805 45.0319 117.947 48.4256 117.947 52.6041V65.8555C117.947 74.214 109.662 81 99.458 81V52.6029C99.458 48.423 103.601 45.0306 108.702 45.0306V45.0319Z" fill="url(#paint4_linear_265_77)"/>
</g>
<defs>
<linearGradient id="paint0_linear_265_77" x1="34.7163" y1="46.2003" x2="57.3559" y2="46.2003" gradientUnits="userSpaceOnUse">
<stop offset="0.05" stop-color="#B1B0B0"/>
<stop offset="0.27" stop-color="#ACABAB"/>
<stop offset="0.53" stop-color="#9E9D9D"/>
<stop offset="0.73" stop-color="#8E8E8E"/>
</linearGradient>
<linearGradient id="paint1_linear_265_77" x1="-0.000269587" y1="40.4853" x2="42.8613" y2="40.4853" gradientUnits="userSpaceOnUse">
<stop offset="0.31" stop-color="#FFA454"/>
<stop offset="0.42" stop-color="#F8A55B"/>
<stop offset="0.59" stop-color="#E7A76F"/>
<stop offset="0.79" stop-color="#CCAC91"/>
<stop offset="0.95" stop-color="#B2B1B1"/>
</linearGradient>
<linearGradient id="paint2_linear_265_77" x1="49.9107" y1="44.7831" x2="84.4564" y2="44.7831" gradientUnits="userSpaceOnUse">
<stop offset="0.31" stop-color="#FFA454"/>
<stop offset="0.42" stop-color="#F8A55B"/>
<stop offset="0.59" stop-color="#E7A76F"/>
<stop offset="0.79" stop-color="#CCAC91"/>
<stop offset="0.95" stop-color="#B2B1B1"/>
</linearGradient>
<linearGradient id="paint3_linear_265_77" x1="104.032" y1="28.2573" x2="114.694" y2="40.9871" gradientUnits="userSpaceOnUse">
<stop offset="0.33" stop-color="#FFA454"/>
<stop offset="0.66" stop-color="#CCAC91"/>
<stop offset="0.86" stop-color="#B2B1B1"/>
</linearGradient>
<linearGradient id="paint4_linear_265_77" x1="102.851" y1="59.6967" x2="109.781" y2="69.8148" gradientUnits="userSpaceOnUse">
<stop offset="0.35" stop-color="#FFA454"/>
<stop offset="0.48" stop-color="#EFA666"/>
<stop offset="0.99" stop-color="#B2B1B1"/>
</linearGradient>
<clipPath id="clip0_265_77">
<rect width="118" height="81" fill="white"/>
</clipPath>
</defs>
</svg>
